<?xml version="1.0" encoding="UTF-8"?>
<svg version="1.1" xmlns="http://www.w3.org/2000/svg" width="2000" height="2001">
<path d="M0 0 C11.24869681 2.24973936 11.24869681 2.24973936 15.390625 3.62548828 C16.80177078 4.08920334 16.80177078 4.08920334 18.24142456 4.56228638 C19.7306694 5.06125931 19.7306694 5.06125931 21.25 5.5703125 C22.85828171 6.10082718 22.85828171 6.10082718 24.49905396 6.64205933 C26.80359495 7.40277377 29.10729383 8.16604331 31.41021729 8.93164062 C37.53786682 10.96866866 43.67153114 12.9874377 49.8046875 15.0078125 C50.43080807 15.21432686 51.05692863 15.42084122 51.70202255 15.63361359 C67.62205922 20.88414159 83.59357818 25.97241866 99.5703125 31.04736328 C100.57552948 31.36738312 101.58074646 31.68740295 102.61642456 32.01712036 C104.48204198 32.6109792 106.34815695 33.20327829 108.21487427 33.79367065 C109.45260086 34.18777634 109.45260086 34.18777634 110.71533203 34.58984375 C111.42658234 34.81534912 112.13783264 35.04085449 112.87063599 35.27319336 C115.27857961 36.09508638 117.6376333 37.05505332 120 38 C120 71 120 104 120 138 C75.45 138 30.9 138 -15 138 C-15 146.91 -15 155.82 -15 165 C29.55 165 74.1 165 120 165 C120 273.24 120 381.48 120 493 C76.24024153 507.97044369 76.24024153 507.97044369 60.4375 513.0625 C58.66463393 513.63598442 56.89184977 514.20972209 55.11914062 514.78369141 C52.41626188 515.65869067 49.71328549 516.5333773 47.00985718 517.40667725 C40.72133734 519.43872878 34.43962756 521.49095889 28.16015625 523.55078125 C25.59364586 524.39068689 23.02698191 525.23012106 20.4602356 526.06930542 C18.83221619 526.60246022 17.20466458 527.13704577 15.5776062 527.67312622 C13.34469649 528.40850034 11.11008763 529.13846477 8.875 529.8671875 C8.21778458 530.08518509 7.56056915 530.30318268 6.88343811 530.52778625 C4.11657755 531.42470905 1.93269549 532 -1 532 C-0.95191171 531.13716335 -0.95191171 531.13716335 -0.90285194 530.25689566 C1.01148325 495.68960082 2.41581648 461.13818595 3.21369738 426.52738581 C3.31117001 422.31716118 3.41264374 418.10704191 3.51660156 413.89697266 C3.53721889 413.05928354 3.55783621 412.22159443 3.5790783 411.35852079 C3.87537961 399.65538626 4.38526543 387.97925107 5.07239756 376.29280111 C6.25784481 356.12716963 7.01367894 335.9919943 7.0078125 315.7890625 C7.00854236 315.00294795 7.00927222 314.21683339 7.01002419 313.40689719 C6.98559887 267.153928 -1.40026887 234.88901534 -34.63186646 201.59359741 C-52.38159761 184.14579187 -71.75020382 168.44132129 -92 154 C-96.92208601 158.12934119 -101.56070007 162.41850442 -106.09266567 166.96961784 C-106.7746502 167.65044863 -107.45663473 168.33127941 -108.15928546 169.03274143 C-110.43835374 171.30916821 -112.7138457 173.5891358 -114.98936462 175.86911011 C-116.63700372 177.51631159 -118.28486261 179.16329324 -119.93292236 180.81007385 C-123.99007992 184.86522416 -128.04490246 188.9226987 -132.09875979 192.98114797 C-137.02260274 197.91029499 -141.94940218 202.83648311 -146.87627839 207.76259796 C-155.92474518 216.80982365 -164.97094543 225.85931226 -174.01576233 234.91018677 C-186.24559465 247.14819533 -198.47854851 259.38307614 -210.71203613 271.61743164 C-240.12324947 301.03389645 -269.53010748 330.45471555 -298.9375 359.875 C-364.628125 425.58625 -430.31875 491.2975 -498 559 C-125.76 559 246.48 559 630 559 C525.39 454.39 420.78 349.78 313 242 C295.31752487 250.84123757 271.66881057 272.76006947 263.54456139 291.3260479 C258.34369329 307.43609988 259.59081624 325.0523261 260.33673763 341.73203182 C260.56284662 347.7659647 260.57791504 353.79820197 260.59784594 359.83542982 C260.64372173 371.75231745 260.88302373 383.65647121 261.25341797 395.56738281 C261.61164406 407.10100559 261.87286852 418.63049036 262.01025391 430.16894531 C262.02311316 431.24484594 262.02311316 431.24484594 262.0362322 432.34248194 C262.07868516 435.942671 262.1193003 439.54287802 262.15900373 443.14309835 C262.48808595 472.76993602 263.1383622 502.38364767 264 532 C254.55531285 529.97570921 254.55531285 529.97570921 250.18861389 528.52687073 C249.34927811 528.25078979 248.50994232 527.97470886 247.64517212 527.69026184 C246.7581662 527.39359116 245.87116028 527.09692047 244.95727539 526.79125977 C243.99666702 526.47391876 243.03605865 526.15657776 242.04634094 525.82962036 C238.8954137 524.78762318 235.74655926 523.73950297 232.59765625 522.69140625 C230.39259115 521.96116002 228.1873835 521.23134412 225.98204041 520.50193787 C220.18967035 518.58506743 214.39897589 516.66318674 208.60870361 514.73999023 C199.34633229 511.66448951 190.08143551 508.59660617 180.81652641 505.52876091 C177.59340129 504.46070703 174.37099365 503.39051162 171.1486969 502.31996155 C169.15651872 501.65930917 167.16432685 500.99869809 165.17211914 500.33813477 C164.28713745 500.04348831 163.40215576 499.74884186 162.49035645 499.44526672 C157.33047798 497.73644475 152.15235 496.13616637 146.92754269 494.63654995 C145 494 145 494 144 493 C142.88042369 486.3173596 142.85945067 479.72484837 142.87301636 472.9621582 C142.87145637 471.76352489 142.86989638 470.56489157 142.86828911 469.32993603 C142.86500066 466.01945955 142.86617077 462.70904016 142.86927533 459.3985672 C142.87154385 455.8208446 142.86804233 452.24312689 142.86529541 448.66540527 C142.86085209 441.65864923 142.86180843 434.65190391 142.86470805 427.64514744 C142.8669706 421.93997493 142.8672709 416.23480541 142.86618423 410.52963257 C142.86595439 409.30939208 142.86595439 409.30939208 142.86571989 408.06450027 C142.86540014 406.41145809 142.86507593 404.75841592 142.8647473 403.10537374 C142.86189597 387.60367867 142.8651726 372.10198952 142.87054767 356.60029542 C142.87500192 343.34550647 142.87425052 330.09072629 142.86962891 316.8359375 C142.86425368 301.41279551 142.86218477 285.98965872 142.86524117 270.56651592 C142.86555968 268.91481718 142.86587405 267.26311843 142.86618423 265.61141968 C142.86633851 264.79898003 142.86649279 263.98654039 142.86665174 263.14948136 C142.86750909 257.46998376 142.8660707 251.79048951 142.86370468 246.11099243 C142.86087303 239.16121387 142.86171425 232.21144658 142.86698543 225.26166928 C142.86957977 221.72656901 142.870702 218.19148738 142.86733627 214.65638733 C142.86455241 210.79410038 142.86809223 206.93186392 142.87301636 203.06958008 C142.87078564 201.99322453 142.86855491 200.91686899 142.86625659 199.80789661 C142.89451027 188.17231598 143.51422026 176.65871383 144 165 C188.22 165 232.44 165 278 165 C278 156.09 278 147.18 278 138 C233.78 138 189.56 138 144 138 C144 105 144 72 144 38 C151.87425261 34.62532031 151.87425261 34.62532031 155.44824219 33.4921875 C156.26045731 33.23272339 157.07267242 32.97325928 157.90950012 32.70593262 C158.77983383 32.43172485 159.65016754 32.15751709 160.546875 31.875 C161.48758347 31.57533325 162.42829193 31.2756665 163.39750671 30.96691895 C166.51400216 29.97476252 169.63198057 28.98735557 172.75 28 C177.23618341 26.57450662 181.72162998 25.14670225 186.20703125 23.71875 C187.38374893 23.34447876 188.56046661 22.97020752 189.77284241 22.58459473 C198.27781111 19.87640212 206.77305723 17.13930995 215.26372147 14.38665771 C217.31119494 13.72297165 219.35885739 13.05987203 221.40658569 12.39697266 C222.75640982 11.95996444 224.10623283 11.52295273 225.45605469 11.0859375 C226.45043643 10.76400925 226.45043643 10.76400925 227.46490669 10.43557739 C230.78010339 9.36193519 234.09473971 8.28661321 237.4083252 7.20800781 C241.12360569 5.99868357 244.84103261 4.79604604 248.55859375 3.59375 C249.67505783 3.22890503 250.79152191 2.86406006 251.94181824 2.48815918 C253.4738665 1.9941864 253.4738665 1.9941864 255.03686523 1.49023438 C256.37285011 1.05632385 256.37285011 1.05632385 257.73582458 0.61364746 C260 0 260 0 263 0 C263.33 9.24 263.66 18.48 264 28 C266.94808594 26.9171875 269.89617188 25.834375 272.93359375 24.71875 C275.77630706 23.67588311 278.61922237 22.63356872 281.4621582 21.59130859 C283.44414142 20.86434831 285.42591276 20.13681011 287.4074707 19.40869141 C290.24896168 18.36470447 293.09119789 17.32277031 295.93359375 16.28125 C297.27108925 15.78908997 297.27108925 15.78908997 298.63560486 15.2869873 C299.86676781 14.83652039 299.86676781 14.83652039 301.12280273 14.37695312 C301.84894272 14.11047974 302.5750827 13.84400635 303.32322693 13.56945801 C305 13 305 13 306 13 C306.33 85.6 306.66 158.2 307 233 C308.32 231.68 309.64 230.36 311 229 C315.03213603 230.61363937 317.7393036 233.46221277 320.73962784 236.49073887 C321.59749124 237.34469134 321.59749124 237.34469134 322.47268522 238.21589538 C324.39886485 240.13574994 326.31779914 242.06268812 328.23687744 243.98963928 C329.6258372 245.37701162 331.01523452 246.76394602 332.40503287 248.1504783 C336.23144293 251.97045784 340.0515622 255.79667544 343.87070704 259.62391675 C347.98705313 263.74682684 352.10914452 267.86398563 356.23052979 271.9818573 C364.30610767 280.05238723 372.37632395 288.12825832 380.44475487 296.20593268 C389.35734138 305.12836381 398.27458603 314.04613264 407.19233023 322.96340824 C424.92442671 340.69459832 442.6510893 358.4312116 460.37503804 376.17054571 C476.13475584 391.94389334 491.89816915 407.71353789 507.66503906 423.47973633 C508.67774578 424.49240263 509.69045246 425.50506896 510.70315912 426.51773531 C511.20381399 427.01836983 511.70446887 427.51900435 512.2202951 428.03480961 C514.74032502 430.55473875 517.26034984 433.07467298 519.7803688 435.59461308 C520.27749069 436.09171825 520.77461258 436.58882342 521.28679876 437.10099239 C534.44898088 450.26280969 547.60871295 463.42707607 560.7676084 476.59217924 C561.23541775 477.06020886 561.70322711 477.52823848 562.1852125 478.01045082 C564.53461216 480.36095976 566.88400566 482.71147486 569.233391 485.06199812 C575.78698178 491.61861153 582.34155472 498.17424213 588.89643097 504.72957039 C596.87670487 512.71052474 604.85509541 520.69335641 612.83110264 528.67857487 C616.90471876 532.75682408 620.97913513 536.83426531 625.05569458 540.9095726 C628.78074176 544.63353101 632.50349927 548.35976189 636.2243683 552.08789485 C637.57733618 553.44268769 638.93116367 554.79662268 640.28589395 556.1496532 C642.11414047 557.97585819 643.93933832 559.80505422 645.76373672 561.63510227 C646.57061174 562.43889431 646.57061174 562.43889431 647.39378726 563.25892457 C651 566.88584508 651 566.88584508 651 568 C264.9 568 -121.2 568 -519 568 C-512.25 560.125 -512.25 560.125 -509.56175673 557.43755823 C-508.63847825 556.51090882 -508.63847825 556.51090882 -507.69654769 555.56553921 C-507.03848468 554.91010322 -506.38042168 554.25466723 -505.70241737 553.57936954 C-504.98637736 552.86217569 -504.27033735 552.14498183 -503.53259915 551.40605482 C-501.13531367 549.00612481 -498.73448164 546.60977498 -496.33364868 544.21339417 C-494.5958407 542.47515004 -492.85825252 540.73668615 -491.12086523 538.99802154 C-487.34443074 535.21981749 -483.5664507 531.44316902 -479.78709412 527.66788864 C-474.16736997 522.05420875 -468.55052509 516.43765456 -462.93426087 510.82051341 C-453.48594318 501.37088285 -444.03530259 491.9235787 -434.58333206 482.47760201 C-425.22583529 473.12602395 -415.86937481 463.77341105 -406.51429367 454.41941643 C-405.93244046 453.83763196 -405.35058725 453.25584749 -404.75110213 452.65643319 C-401.79612233 449.70179172 -398.841161 446.74713178 -395.88620679 443.79246473 C-374.9608058 422.86916367 -354.0330877 401.94818163 -333.10400391 381.02856445 C-312.77275101 360.70649714 -292.44254964 340.38337882 -272.11376953 320.05883789 C-271.48705521 319.43225509 -270.86034088 318.80567229 -270.21463521 318.16010213 C-263.92086551 311.86765096 -257.62711716 305.57517843 -251.33338446 299.28269024 C-238.51253102 286.46437296 -225.69153505 273.64619824 -212.87045288 260.82810974 C-212.28097127 260.23876542 -211.69148966 259.64942111 -211.08414498 259.04221787 C-171.72515109 219.69242334 -132.36282449 180.34596261 -93 141 C-75.64010331 155.87991145 -60.16752575 172.83247425 -44 189 C-43.67 130.92 -43.34 72.84 -43 13 C-36.88951315 14.83314606 -30.95872677 16.65679861 -25.0234375 18.91796875 C-23.97925156 19.31113029 -23.97925156 19.31113029 -22.91397095 19.7122345 C-20.73311513 20.53418845 -18.55403879 21.36074278 -16.375 22.1875 C-14.87902262 22.75226146 -13.38292968 23.31671695 -11.88671875 23.88085938 C-8.25624535 25.24982526 -4.62822476 26.62502646 -1 28 C-0.67 18.76 -0.34 9.52 0 0 Z M9 11 C9 50.27 9 89.54 9 130 C42.99 130 76.98 130 112 130 C112 101.62 112 73.24 112 44 C100.945 40.41125 89.89 36.8225 78.5 33.125 C73.37694336 31.46041748 73.37694336 31.46041748 68.15039062 29.76220703 C64.92969933 28.7176555 64.92969933 28.7176555 61.7088623 27.67355347 C60.33756429 27.22878888 58.96647111 26.78339226 57.59558105 26.33737183 C41.44040092 21.08252443 25.21700486 16.06781402 9 11 Z M248.50683594 12.73730469 C247.32498718 13.11900818 246.14313843 13.50071167 244.92547607 13.89398193 C243.6117655 14.31991479 242.29806547 14.74588016 240.984375 15.171875 C239.61716624 15.61407563 238.24991691 16.05615085 236.88262939 16.49810791 C233.24015811 17.6758836 229.59826602 18.85544079 225.95648193 20.03533936 C222.40754004 21.18481131 218.85803658 22.33254451 215.30859375 23.48046875 C194.20215642 30.3093069 173.10160559 37.15623602 152 44 C152 72.38 152 100.76 152 130 C185.99 130 219.98 130 255 130 C255 90.73 255 51.46 255 11 C252.82380461 11 250.5399378 12.079327 248.50683594 12.73730469 Z M-35 25 C-35.77648041 47.11396645 -36.3554435 69.22564035 -36.70980167 91.35054684 C-36.87884587 101.62828786 -37.10932599 111.89740798 -37.48950195 122.16967773 C-41.95498299 170.93737392 -41.95498299 170.93737392 -25.35280132 214.50802326 C-18.55104164 221.65349946 -10.74308521 227.45724009 -2 232 C-1.67 232 -1.34 232 -1 232 C-1 212.53 -1 193.06 -1 173 C-8.26 173 -15.52 173 -23 173 C-23 158.81 -23 144.62 -23 130 C-15.41 130 -7.82 130 0 130 C0 99.64 0 69.28 0 38 C-7.86707596 34.72205168 -15.68018604 31.56794673 -23.6875 28.6875 C-24.67427734 28.32849609 -25.66105469 27.96949219 -26.67773438 27.59960938 C-30.73866457 25.83832881 -30.73866457 25.83832881 -35 25 Z M289.71875 27.58984375 C288.99006714 27.85382462 288.26138428 28.11780548 287.51062012 28.38978577 C285.96689969 28.94969331 284.42349208 29.51046395 282.88037109 30.07202148 C280.51124982 30.93340968 278.14045913 31.79008335 275.76953125 32.64648438 C274.27333299 33.18981645 272.77723579 33.73342692 271.28125 34.27734375 C270.21094543 34.66332985 270.21094543 34.66332985 269.11901855 35.05711365 C265.80458705 36.08893177 265.80458705 36.08893177 263 38 C262.90477582 40.86091818 262.87446674 43.69763621 262.88647461 46.55883789 C262.88632858 47.45631241 262.88618256 48.35378693 262.8860321 49.27845764 C262.88673158 52.25988134 262.89452559 55.2412434 262.90234375 58.22265625 C262.90420781 60.28388942 262.90563177 62.34512304 262.90663147 64.40635681 C262.91045763 69.8430401 262.92028874 75.27969686 262.93133545 80.71636963 C262.94154747 86.25947714 262.94612864 91.80258892 262.95117188 97.34570312 C262.96191092 108.23048231 262.97950851 119.1152348 263 130 C270.59 130 278.18 130 286 130 C286 144.19 286 158.38 286 173 C278.74 173 271.48 173 264 173 C264 206.99 264 240.98 264 276 C266.31 274.02 268.62 272.04 271 270 C274.2313509 267.63893414 274.2313509 267.63893414 275.8419162 266.48780906 C286.85949557 258.42855155 297.5160707 248.97277385 300.01866537 235.01097959 C301.66692945 222.16551752 301.16572045 209.15198879 300.73763633 196.24182153 C300.56679574 190.20497005 300.55283498 184.16760361 300.52095032 178.12870789 C300.43761005 166.73641008 300.21690278 155.35125601 299.9445141 143.96208018 C299.64085192 130.97843742 299.49381485 117.99442073 299.35873735 105.00810111 C299.07784606 78.33479985 298.60413616 51.66780306 298 25 C295.29194411 25 292.27607165 26.66033681 289.71875 27.58984375 Z M8 173 C4.90842291 198.01726182 4.90842291 198.01726182 4.78564453 223.11474609 C4.87191711 224.29019489 4.87191711 224.29019489 4.95993257 225.48939013 C7.5734394 255.11380905 32.7927226 274.45372529 53.81781638 292.84419429 C60.17825301 298.42185822 66.32573453 304.2157017 72.47080886 310.02836382 C82.00242938 319.03583567 91.63027589 327.92622186 101.43139648 336.63989258 C102.39092728 337.49461655 103.35045807 338.34934052 104.33906555 339.22996521 C107.78188769 342.92926011 107.78188769 342.92926011 112 345 C112 288.24 112 231.48 112 173 C77.68 173 43.36 173 8 173 Z M152 173 C151.81999767 197.6445156 151.81999767 197.6445156 151.64453125 222.2890625 C151.57349964 232.40528403 151.50206795 242.52150101 151.42724609 252.63769531 C151.35501799 262.41990328 151.28520505 272.20212603 151.21875 281.984375 C151.21327274 282.79063261 151.20779549 283.59689022 151.20215225 284.42757988 C150.96738141 319.28517121 150.9429278 354.14176162 151 389 C151.95306534 388.17293549 152.90613068 387.34587097 153.88807678 386.4937439 C156.74023266 384.04841437 159.63366851 381.66487319 162.5622406 379.31167603 C177.97779924 366.91762973 192.87864971 354.01270601 207.4375 340.625 C208.01518725 340.09520192 208.59287451 339.56540384 209.18806744 339.01955128 C238.89677676 311.71179209 260.50210862 288.0931164 262.96272278 246.52215576 C263.40546389 221.78931291 259.01335721 197.53733727 256 173 C221.68 173 187.36 173 152 173 Z M8 254 C8 341.78 8 429.56 8 520 C16.38582005 518.34640706 16.38582005 518.34640706 24.42651367 516.00390625 C26.1672541 515.42189453 26.1672541 515.42189453 27.94316101 514.828125 C29.78694084 514.20164062 29.78694084 514.20164062 31.66796875 513.5625 C32.99169189 513.11790702 34.31561554 512.67391066 35.63972473 512.23046875 C39.12295897 511.06245048 42.60382735 509.88754447 46.08410645 508.71075439 C51.55433846 506.86231693 57.0279684 505.02394718 62.50162125 503.18566895 C63.86029717 502.7293028 65.21888668 502.27267928 66.57738876 501.8157959 C81.67420868 496.74027734 96.82961926 491.85066679 112 487 C115.20991932 467.55885038 117.26650515 448.09640434 118.4375 428.4375 C118.48216699 427.7089232 118.52683398 426.98034639 118.57285452 426.22969151 C120.79068317 389.02530906 117.7277 358.07796079 92.46332359 329.17231178 C82.43424314 317.93004929 71.70531437 307.50346347 60.5625 297.375 C59.94817155 296.8148575 59.33384311 296.25471499 58.70089865 295.67759848 C34.92750217 270.54426272 34.92750217 270.54426272 8 254 Z M250.9315033 300.65888977 C250.05505661 301.47181992 249.17860992 302.28475006 248.27560425 303.12231445 C247.29671705 304.03614244 246.31805654 304.95021329 245.33959961 305.86450195 C244.83850866 306.33133078 244.33741772 306.7981596 243.8211422 307.27913475 C233.85825223 316.56374301 224.02669175 325.98391707 214.23812008 335.45182514 C208.00841657 341.47231742 201.74499899 347.44641214 195.37866211 353.32250977 C163.54895202 379.961896 163.54895202 379.961896 147.50507069 416.05641174 C147.31370624 424.03715311 148.4801288 431.81332906 150.14163208 439.59805298 C151.40200245 445.59270342 151.31824831 451.50448807 151.21875 457.60546875 C151.25415514 459.42535644 151.29919917 461.24509103 151.35546875 463.06445312 C151.37915527 463.9062915 151.4028418 464.74812988 151.42724609 465.61547852 C151.45125488 466.46424561 151.47526367 467.3130127 151.5 468.1875 C151.54868392 470.06313795 151.59685725 471.93878923 151.64453125 473.81445312 C151.75727521 478.2098082 151.87642684 482.60493665 152 487 C159.94774262 489.66509451 167.89674184 492.32639982 175.84713173 494.98358536 C179.54366848 496.21916025 183.23984863 497.4557747 186.93505859 498.6953125 C209.88235232 506.38908051 232.91541554 513.71013122 256 521 C256 447.08 256 373.16 256 297 C253.99460837 297 252.29092622 299.39694544 250.9315033 300.65888977 Z " fill="#FFFFFF" transform="translate(934,716)"/>
</svg>
